<svg enable-background="new 0 0 512 512" height="512" width="512" xmlns="http://www.w3.org/2000/svg"><rect id="backgroundrect" width="100%" height="100%" x="0" y="0" fill="none" stroke="none"/><g class="currentLayer" style=""><title>Layer 1</title><path d="m501.589 203.41-49.309-62.223c-9.159-11.558-22.854-18.187-37.573-18.187h-23.707v-10c0-15.99-13.01-29-29-29s-29 13.01-29 29v10h-285c-26.467 0-48 21.601-48 48.151v20.099c0 4.418 3.582 8 8 8s8-3.582 8-8v-20.099c0-17.728 14.355-32.151 32-32.151h366.707c17.602 0 24.864 11.91 32.067 21h-47.788c-19.307 0-36.233 13.734-40.25 32.656l-5.843 27.532c-5.45 25.687 14.115 49.812 40.251 49.812h102.856v34h-26c-13.233 0-24 10.767-24 24s10.767 24 24 24h26v3.849c0 17.728-14.355 32.151-32 32.151h-28.518c-3.951-31.525-30.903-56-63.482-56s-59.531 24.475-63.482 56h-86.518c-4.418 0-8 3.582-8 8s3.582 8 8 8h86.518c3.951 31.525 30.903 56 63.482 56s59.531-24.475 63.482-56h28.518c26.467 0 48-21.601 48-48.151v-122.538c0-10.81-3.697-21.428-10.411-29.901zm-152.589-80.41v-10c0-7.168 5.832-13 13-13s13 5.832 13 13v10zm23 321c-26.468 0-48-21.532-48-48s21.532-48 48-48 48 21.532 48 48-21.532 48-48 48zm21.144-190c-16.005 0-27.929-14.799-24.598-30.489l5.843-27.532c2.456-11.577 12.801-19.979 24.597-19.979h60.467c40.736 51.406 36.547 39.66 36.547 78zm76.856 82c-4.411 0-8-3.589-8-8s3.589-8 8-8h26v16z" id="svg_1" class="" fill="#ffffff" fill-opacity="1"/><path d="m9.56 235.84c4.52-.892 7.154-5.338 6.28-9.4-.977-4.977-6.288-7.744-10.9-5.83-8.805 3.672-4.792 17.265 4.62 15.23z" id="svg_2" class="selected" fill="#ffffff" fill-opacity="1"/><path d="m130 332c-32.579 0-59.531 24.475-63.482 56h-18.518c-17.645 0-32-14.423-32-32.151v-12.849h23c4.418 0 8-3.582 8-8s-3.582-8-8-8h-23v-14h33c4.418 0 8-3.582 8-8s-3.582-8-8-8h-33v-39c0-4.418-3.582-8-8-8s-8 3.582-8 8v97.849c0 26.55 21.533 48.151 48 48.151h18.518c3.951 31.525 30.903 56 63.482 56 35.29 0 64-28.71 64-64s-28.71-64-64-64zm0 112c-26.467 0-48-21.532-48-48s21.533-48 48-48 48 21.532 48 48-21.533 48-48 48z" id="svg_3" class="selected" fill="#ffffff" fill-opacity="1"/><path d="m130 380c-8.822 0-16 7.178-16 16s7.178 16 16 16 16-7.178 16-16-7.178-16-16-16z" id="svg_4" class="selected" fill="#ffffff" fill-opacity="1"/><path d="m372 380c-8.822 0-16 7.178-16 16s7.178 16 16 16 16-7.178 16-16-7.178-16-16-16z" id="svg_5" class="selected" fill="#ffffff" fill-opacity="1"/><path d="m226 178h-40c-4.418 0-8 3.582-8 8v29h-29c-4.418 0-8 3.582-8 8v40c0 4.418 3.582 8 8 8h29v30c0 4.418 3.582 8 8 8h40c4.418 0 8-3.582 8-8v-30h29c4.418 0 8-3.582 8-8v-40c0-4.418-3.582-8-8-8h-29v-29c0-4.418-3.582-8-8-8zm29 53v24h-29c-4.418 0-8 3.582-8 8v30h-24v-30c0-4.418-3.582-8-8-8h-29v-24h29c4.418 0 8-3.582 8-8v-29h24v29c0 4.418 3.582 8 8 8z" id="svg_6" class="selected" fill="#ffffff" fill-opacity="1"/><path d="m309.107 92.555c9.421 5.247 10.148 6.024 12.886 6.024 8.235 0 11.078-10.991 3.899-14.99l-9-5.013c-3.858-2.149-8.73-.763-10.882 3.097-2.149 3.859-.763 8.731 3.097 10.882z" id="svg_7" class="selected" fill="#ffffff" fill-opacity="1"/><path d="m402.007 97.576c2.748 0 3.463-.776 12.886-6.024 3.86-2.15 5.246-7.022 3.097-10.882-2.15-3.86-7.022-5.246-10.882-3.097l-9 5.013c-7.181 4-4.335 14.99 3.899 14.99z" id="svg_8" class=""/><path d="m402.0069885253906,97.57599639892578 c2.747999906539917,0 3.4630000591278076,-0.7760000228881836 12.88599967956543,-6.02400016784668 c3.859999895095825,-2.1500000953674316 5.245999813079834,-7.021999835968018 3.0969998836517334,-10.881999969482422 c-2.1500000953674316,-3.859999895095825 -7.021999835968018,-5.245999813079834 -10.881999969482422,-3.0969998836517334 l-9,5.013000011444092 c-7.181000232696533,4 -4.335000038146973,14.989999771118164 3.8989999294281006,14.989999771118164 z" class="selected" id="svg_10" fill="#ffffff" fill-opacity="1"/><path d="m362 77c4.418 0 8-3.582 8-8v-9c0-4.418-3.582-8-8-8s-8 3.582-8 8v9c0 4.418 3.582 8 8 8z" id="svg_9" class=""/><path d="m362,77 c4.418000221252441,0 8,-3.5820000171661377 8,-8 v-9 c0,-4.418000221252441 -3.5820000171661377,-8 -8,-8 s-8,3.5820000171661377 -8,8 v9 c0,4.418000221252441 3.5820000171661377,8 8,8 z" class="selected" id="svg_11" fill="#ffffff" fill-opacity="1"/></g></svg>